<svg xmlns="http://www.w3.org/2000/svg" width="2754" height="512" viewBox="0 0 2754 512"><path fill="#00A1A0" d="M198 180H36v99h126v27H36v36h162v-99H72v-27h126M252 180v36h63v126h36V216h63v-36"/><path fill="#FF6618" d="M1188 180v36h63v126h36V216h63v-36M1566 279v-99h-162v162h36v-63h54v45h36v18h36v-45h-36v-18h36zm-36-36h-90v-27h90v27z"/><path fill="#0F2936" d="M2718 180h-162v99h126v27h-126v36h162v-99h-126v-27h126"/><path fill="#00A1A0" d="M468 180v162h36v-63h90v63h36V180H468zm126 63h-90v-27h90v27zM684 180v162h162v-36H720v-90h126v-36M900 180v162h36v-63h18v27h36v18h36v18h36v-45h-36v-18h-36v-36h36v-18h36v-45h-36v18h-36v18h-36v27h-18v-63"/><path fill="#FF6618" d="M1620 180v162h36v-63h90v63h36V180h-162zm126 63h-90v-27h90v27zM1836 180v162h162v-36h-126v-90h126v-36M2052 180v162h162v-36h-126v-27h126v-36h-126v-27h126v-36"/><path fill="#0F2936" d="M2259 306h36v36h-36zM2340 270v72h162V180h-36v126h-90v-36"/></svg>